<svg id="visual" viewBox="0 0 1920 4160" width="1920" height="4160" xmlns="http://www.w3.org/2000/svg" xmlns:xlink="http://www.w3.org/1999/xlink" version="1.1"><g stroke-width="1" stroke-linejoin="bevel"><path d="M883.7 2083L878.7 2231.3L1058.3 2076Z" fill="#343433" stroke="#c07020"></path><path d="M878.7 2231.3L1069.3 2250.3L1058.3 2076Z" fill="#3b3937" stroke="#c07020"></path><path d="M1212.8 1929.7L1055.3 1929.7L1058.3 2076Z" fill="#393736" stroke="#c07020"></path><path d="M1058.3 2076L1055.3 1929.7L883.7 2083Z" fill="#44403c" stroke="#c07020"></path><path d="M1069.3 2250.3L1206.8 2239.3L1058.3 2076Z" fill="#3f3d39" stroke="#c07020"></path><path d="M1206.8 2239.3L1221.8 2064L1058.3 2076Z" fill="#343433" stroke="#c07020"></path><path d="M678.2 2089L713.2 2269.3L878.7 2231.3Z" fill="#3b3937" stroke="#c07020"></path><path d="M878.7 2231.3L898.7 2435.7L1069.3 2250.3Z" fill="#3d3b38" stroke="#c07020"></path><path d="M1055.3 1929.7L878.7 1891.7L883.7 2083Z" fill="#343433" stroke="#c07020"></path><path d="M883.7 2083L678.2 2089L878.7 2231.3Z" fill="#343433" stroke="#c07020"></path><path d="M713.2 2269.3L898.7 2435.7L878.7 2231.3Z" fill="#44403c" stroke="#c07020"></path><path d="M1069.3 2250.3L1210.8 2404.7L1206.8 2239.3Z" fill="#44403c" stroke="#c07020"></path><path d="M898.7 2435.7L1035.3 2439.7L1069.3 2250.3Z" fill="#3b3937" stroke="#c07020"></path><path d="M721.2 1885.7L678.2 2089L883.7 2083Z" fill="#343433" stroke="#c07020"></path><path d="M1221.8 2064L1212.8 1929.7L1058.3 2076Z" fill="#47423e" stroke="#c07020"></path><path d="M1040.3 1731.3L845.7 1751.3L878.7 1891.7Z" fill="#343433" stroke="#c07020"></path><path d="M1035.3 2439.7L1210.8 2404.7L1069.3 2250.3Z" fill="#343433" stroke="#c07020"></path><path d="M1206.8 2239.3L1383.4 2067L1221.8 2064Z" fill="#3d3b38" stroke="#c07020"></path><path d="M878.7 1891.7L721.2 1885.7L883.7 2083Z" fill="#44403c" stroke="#c07020"></path><path d="M547.6 2428.7L699.2 2447.7L713.2 2269.3Z" fill="#47423e" stroke="#c07020"></path><path d="M713.2 2269.3L699.2 2447.7L898.7 2435.7Z" fill="#49443f" stroke="#c07020"></path><path d="M898.7 2435.7L874.7 2586L1035.3 2439.7Z" fill="#423f3b" stroke="#c07020"></path><path d="M1386.4 2249.3L1383.4 2067L1206.8 2239.3Z" fill="#44403c" stroke="#c07020"></path><path d="M1221.8 2064L1383.4 2067L1212.8 1929.7Z" fill="#343433" stroke="#c07020"></path><path d="M1210.8 2404.7L1386.4 2249.3L1206.8 2239.3Z" fill="#423f3b" stroke="#c07020"></path><path d="M1040.3 1731.3L878.7 1891.7L1055.3 1929.7Z" fill="#3b3937" stroke="#c07020"></path><path d="M878.7 1891.7L845.7 1751.3L721.2 1885.7Z" fill="#3f3d39" stroke="#c07020"></path><path d="M1235.8 1755.3L1055.3 1929.7L1212.8 1929.7Z" fill="#363634" stroke="#c07020"></path><path d="M1235.8 1755.3L1040.3 1731.3L1055.3 1929.7Z" fill="#423f3b" stroke="#c07020"></path><path d="M699.2 2447.7L874.7 2586L898.7 2435.7Z" fill="#3d3b38" stroke="#c07020"></path><path d="M1035.3 2439.7L1247.8 2575L1210.8 2404.7Z" fill="#363634" stroke="#c07020"></path><path d="M874.7 2586L1043.3 2602L1035.3 2439.7Z" fill="#3f3d39" stroke="#c07020"></path><path d="M1210.8 2404.7L1396.4 2440.7L1386.4 2249.3Z" fill="#423f3b" stroke="#c07020"></path><path d="M501.6 1924.7L509.6 2056L678.2 2089Z" fill="#47423e" stroke="#c07020"></path><path d="M678.2 2089L500.6 2228.3L713.2 2269.3Z" fill="#363634" stroke="#c07020"></path><path d="M501.6 1924.7L678.2 2089L721.2 1885.7Z" fill="#393736" stroke="#c07020"></path><path d="M509.6 2056L500.6 2228.3L678.2 2089Z" fill="#363634" stroke="#c07020"></path><path d="M1414.4 1887.7L1235.8 1755.3L1212.8 1929.7Z" fill="#423f3b" stroke="#c07020"></path><path d="M1043.3 2602L1247.8 2575L1035.3 2439.7Z" fill="#323232" stroke="#c07020"></path><path d="M547.6 2428.7L711.2 2584L699.2 2447.7Z" fill="#323232" stroke="#c07020"></path><path d="M699.2 2447.7L711.2 2584L874.7 2586Z" fill="#3b3937" stroke="#c07020"></path><path d="M874.7 2586L854.7 2771.3L1043.3 2602Z" fill="#393736" stroke="#c07020"></path><path d="M500.6 2228.3L547.6 2428.7L713.2 2269.3Z" fill="#343433" stroke="#c07020"></path><path d="M1247.8 2575L1396.4 2440.7L1210.8 2404.7Z" fill="#423f3b" stroke="#c07020"></path><path d="M1554.9 2077L1414.4 1887.7L1383.4 2067Z" fill="#3b3937" stroke="#c07020"></path><path d="M1554.9 2077L1383.4 2067L1386.4 2249.3Z" fill="#423f3b" stroke="#c07020"></path><path d="M1383.4 2067L1414.4 1887.7L1212.8 1929.7Z" fill="#323232" stroke="#c07020"></path><path d="M882.7 1575L688.2 1722.3L845.7 1751.3Z" fill="#323232" stroke="#c07020"></path><path d="M845.7 1751.3L688.2 1722.3L721.2 1885.7Z" fill="#363634" stroke="#c07020"></path><path d="M527.6 1753.3L501.6 1924.7L721.2 1885.7Z" fill="#47423e" stroke="#c07020"></path><path d="M509.6 2056L370.1 2066L500.6 2228.3Z" fill="#363634" stroke="#c07020"></path><path d="M1588.9 2266.3L1554.9 2077L1386.4 2249.3Z" fill="#44403c" stroke="#c07020"></path><path d="M1055.3 1534L882.7 1575L1040.3 1731.3Z" fill="#343433" stroke="#c07020"></path><path d="M1040.3 1731.3L882.7 1575L845.7 1751.3Z" fill="#3d3b38" stroke="#c07020"></path><path d="M1195.8 2789.3L1375.4 2602L1247.8 2575Z" fill="#343433" stroke="#c07020"></path><path d="M1247.8 2575L1375.4 2602L1396.4 2440.7Z" fill="#49443f" stroke="#c07020"></path><path d="M1396.4 2440.7L1588.9 2266.3L1386.4 2249.3Z" fill="#49443f" stroke="#c07020"></path><path d="M1414.4 1887.7L1410.4 1748.3L1235.8 1755.3Z" fill="#3f3d39" stroke="#c07020"></path><path d="M1223.8 1544L1055.3 1534L1040.3 1731.3Z" fill="#3f3d39" stroke="#c07020"></path><path d="M1593.9 1890.7L1410.4 1748.3L1414.4 1887.7Z" fill="#343433" stroke="#c07020"></path><path d="M513.6 1533L527.6 1753.3L688.2 1722.3Z" fill="#3b3937" stroke="#c07020"></path><path d="M688.2 1722.3L527.6 1753.3L721.2 1885.7Z" fill="#44403c" stroke="#c07020"></path><path d="M354.1 1923.7L370.1 2066L501.6 1924.7Z" fill="#393736" stroke="#c07020"></path><path d="M501.6 1924.7L370.1 2066L509.6 2056Z" fill="#323232" stroke="#c07020"></path><path d="M355.1 2415.7L499.6 2575L547.6 2428.7Z" fill="#44403c" stroke="#c07020"></path><path d="M713.2 2748.3L874.7 2586L711.2 2584Z" fill="#3d3b38" stroke="#c07020"></path><path d="M713.2 2748.3L854.7 2771.3L874.7 2586Z" fill="#3d3b38" stroke="#c07020"></path><path d="M1043.3 2602L1195.8 2789.3L1247.8 2575Z" fill="#323232" stroke="#c07020"></path><path d="M1560.9 2448.7L1588.9 2266.3L1396.4 2440.7Z" fill="#47423e" stroke="#c07020"></path><path d="M355.1 2415.7L547.6 2428.7L500.6 2228.3Z" fill="#363634" stroke="#c07020"></path><path d="M547.6 2428.7L499.6 2575L711.2 2584Z" fill="#363634" stroke="#c07020"></path><path d="M1223.8 1544L1040.3 1731.3L1235.8 1755.3Z" fill="#343433" stroke="#c07020"></path><path d="M370.1 2066L349.1 2260.3L500.6 2228.3Z" fill="#3f3d39" stroke="#c07020"></path><path d="M854.7 2771.3L1050.3 2798.3L1043.3 2602Z" fill="#3b3937" stroke="#c07020"></path><path d="M499.6 2575L713.2 2748.3L711.2 2584Z" fill="#47423e" stroke="#c07020"></path><path d="M1585.9 2574L1560.9 2448.7L1396.4 2440.7Z" fill="#323232" stroke="#c07020"></path><path d="M527.6 1753.3L354.1 1923.7L501.6 1924.7Z" fill="#47423e" stroke="#c07020"></path><path d="M172.5 2069L176.5 2264.3L349.1 2260.3Z" fill="#363634" stroke="#c07020"></path><path d="M1413.4 1575L1223.8 1544L1235.8 1755.3Z" fill="#343433" stroke="#c07020"></path><path d="M1050.3 2798.3L1195.8 2789.3L1043.3 2602Z" fill="#47423e" stroke="#c07020"></path><path d="M1375.4 2602L1585.9 2574L1396.4 2440.7Z" fill="#47423e" stroke="#c07020"></path><path d="M349.1 2260.3L355.1 2415.7L500.6 2228.3Z" fill="#49443f" stroke="#c07020"></path><path d="M859.7 1411.7L719.2 1541L882.7 1575Z" fill="#3f3d39" stroke="#c07020"></path><path d="M882.7 1575L719.2 1541L688.2 1722.3Z" fill="#363634" stroke="#c07020"></path><path d="M527.6 1753.3L344.1 1735.3L354.1 1923.7Z" fill="#363634" stroke="#c07020"></path><path d="M1730.5 2060L1593.9 1890.7L1554.9 2077Z" fill="#44403c" stroke="#c07020"></path><path d="M1554.9 2077L1593.9 1890.7L1414.4 1887.7Z" fill="#47423e" stroke="#c07020"></path><path d="M1410.4 1748.3L1413.4 1575L1235.8 1755.3Z" fill="#323232" stroke="#c07020"></path><path d="M1577.9 1712.3L1413.4 1575L1410.4 1748.3Z" fill="#343433" stroke="#c07020"></path><path d="M1544.9 2772.3L1585.9 2574L1375.4 2602Z" fill="#44403c" stroke="#c07020"></path><path d="M1759.5 2452.7L1747.5 2236.3L1588.9 2266.3Z" fill="#44403c" stroke="#c07020"></path><path d="M1747.5 2236.3L1730.5 2060L1554.9 2077Z" fill="#423f3b" stroke="#c07020"></path><path d="M1593.9 1890.7L1577.9 1712.3L1410.4 1748.3Z" fill="#3b3937" stroke="#c07020"></path><path d="M1223.8 1544L1070.3 1410.7L1055.3 1534Z" fill="#423f3b" stroke="#c07020"></path><path d="M1055.3 1534L859.7 1411.7L882.7 1575Z" fill="#3b3937" stroke="#c07020"></path><path d="M1199.8 1364.7L1070.3 1410.7L1223.8 1544Z" fill="#343433" stroke="#c07020"></path><path d="M1070.3 1410.7L859.7 1411.7L1055.3 1534Z" fill="#323232" stroke="#c07020"></path><path d="M345.1 1560L344.1 1735.3L527.6 1753.3Z" fill="#3f3d39" stroke="#c07020"></path><path d="M172.5 2069L349.1 2260.3L370.1 2066Z" fill="#3b3937" stroke="#c07020"></path><path d="M513.6 1533L688.2 1722.3L719.2 1541Z" fill="#3d3b38" stroke="#c07020"></path><path d="M1747.5 2236.3L1554.9 2077L1588.9 2266.3Z" fill="#47423e" stroke="#c07020"></path><path d="M1593.9 1890.7L1722.5 1708.3L1577.9 1712.3Z" fill="#3b3937" stroke="#c07020"></path><path d="M1211.8 2945.7L1408.4 2793.3L1195.8 2789.3Z" fill="#3d3b38" stroke="#c07020"></path><path d="M1195.8 2789.3L1408.4 2793.3L1375.4 2602Z" fill="#393736" stroke="#c07020"></path><path d="M354.1 2625L516.6 2779.3L499.6 2575Z" fill="#3b3937" stroke="#c07020"></path><path d="M499.6 2575L516.6 2779.3L713.2 2748.3Z" fill="#44403c" stroke="#c07020"></path><path d="M851.7 2960.7L1023.3 2934.7L854.7 2771.3Z" fill="#393736" stroke="#c07020"></path><path d="M854.7 2771.3L1023.3 2934.7L1050.3 2798.3Z" fill="#3f3d39" stroke="#c07020"></path><path d="M177.5 2594L354.1 2625L355.1 2415.7Z" fill="#363634" stroke="#c07020"></path><path d="M355.1 2415.7L354.1 2625L499.6 2575Z" fill="#363634" stroke="#c07020"></path><path d="M851.7 2960.7L854.7 2771.3L687.2 2960.7Z" fill="#363634" stroke="#c07020"></path><path d="M1050.3 2798.3L1211.8 2945.7L1195.8 2789.3Z" fill="#393736" stroke="#c07020"></path><path d="M1759.5 2452.7L1588.9 2266.3L1560.9 2448.7Z" fill="#343433" stroke="#c07020"></path><path d="M697.2 1403.7L513.6 1533L719.2 1541Z" fill="#47423e" stroke="#c07020"></path><path d="M172.5 2069L370.1 2066L354.1 1923.7Z" fill="#49443f" stroke="#c07020"></path><path d="M349.1 2260.3L176.5 2264.3L355.1 2415.7Z" fill="#3d3b38" stroke="#c07020"></path><path d="M694.2 1220.3L697.2 1403.7L859.7 1411.7Z" fill="#343433" stroke="#c07020"></path><path d="M859.7 1411.7L697.2 1403.7L719.2 1541Z" fill="#44403c" stroke="#c07020"></path><path d="M157.5 1917.7L172.5 2069L354.1 1923.7Z" fill="#393736" stroke="#c07020"></path><path d="M687.2 2960.7L854.7 2771.3L713.2 2748.3Z" fill="#363634" stroke="#c07020"></path><path d="M1199.8 3145L1211.8 2945.7L1023.3 2934.7Z" fill="#47423e" stroke="#c07020"></path><path d="M1023.3 2934.7L1211.8 2945.7L1050.3 2798.3Z" fill="#393736" stroke="#c07020"></path><path d="M1417.4 1380.7L1199.8 1364.7L1223.8 1544Z" fill="#393736" stroke="#c07020"></path><path d="M1070.3 1410.7L875.7 1208.3L859.7 1411.7Z" fill="#393736" stroke="#c07020"></path><path d="M1417.4 1380.7L1223.8 1544L1413.4 1575Z" fill="#423f3b" stroke="#c07020"></path><path d="M1549.9 2954.7L1544.9 2772.3L1408.4 2793.3Z" fill="#393736" stroke="#c07020"></path><path d="M1408.4 2793.3L1544.9 2772.3L1375.4 2602Z" fill="#3f3d39" stroke="#c07020"></path><path d="M1585.9 2574L1759.5 2452.7L1560.9 2448.7Z" fill="#423f3b" stroke="#c07020"></path><path d="M1748.5 2586L1759.5 2452.7L1585.9 2574Z" fill="#49443f" stroke="#c07020"></path><path d="M1730.5 2060L1771.5 1896.7L1593.9 1890.7Z" fill="#393736" stroke="#c07020"></path><path d="M1920 2067L1771.5 1896.7L1730.5 2060Z" fill="#343433" stroke="#c07020"></path><path d="M1920 2067L1730.5 2060L1747.5 2236.3Z" fill="#3d3b38" stroke="#c07020"></path><path d="M516.6 2779.3L687.2 2960.7L713.2 2748.3Z" fill="#323232" stroke="#c07020"></path><path d="M499.6 2954.7L687.2 2960.7L516.6 2779.3Z" fill="#3d3b38" stroke="#c07020"></path><path d="M200.5 1729.3L354.1 1923.7L344.1 1735.3Z" fill="#423f3b" stroke="#c07020"></path><path d="M200.5 1729.3L157.5 1917.7L354.1 1923.7Z" fill="#44403c" stroke="#c07020"></path><path d="M0 2277.3L155.5 2414.7L176.5 2264.3Z" fill="#3d3b38" stroke="#c07020"></path><path d="M1722.5 1708.3L1573.9 1554L1577.9 1712.3Z" fill="#343433" stroke="#c07020"></path><path d="M1577.9 1712.3L1573.9 1554L1413.4 1575Z" fill="#49443f" stroke="#c07020"></path><path d="M175.5 2790.3L374.1 2766.3L354.1 2625Z" fill="#423f3b" stroke="#c07020"></path><path d="M354.1 2625L374.1 2766.3L516.6 2779.3Z" fill="#343433" stroke="#c07020"></path><path d="M0 2100L176.5 2264.3L172.5 2069Z" fill="#363634" stroke="#c07020"></path><path d="M176.5 2264.3L155.5 2414.7L355.1 2415.7Z" fill="#49443f" stroke="#c07020"></path><path d="M323.1 1376.7L345.1 1560L513.6 1533Z" fill="#3b3937" stroke="#c07020"></path><path d="M513.6 1533L345.1 1560L527.6 1753.3Z" fill="#343433" stroke="#c07020"></path><path d="M1771.5 1896.7L1722.5 1708.3L1593.9 1890.7Z" fill="#3b3937" stroke="#c07020"></path><path d="M1736.5 2757.3L1748.5 2586L1585.9 2574Z" fill="#363634" stroke="#c07020"></path><path d="M345.1 1560L200.5 1729.3L344.1 1735.3Z" fill="#3d3b38" stroke="#c07020"></path><path d="M1547.9 1404.7L1413.4 1575L1573.9 1554Z" fill="#323232" stroke="#c07020"></path><path d="M1547.9 1404.7L1417.4 1380.7L1413.4 1575Z" fill="#393736" stroke="#c07020"></path><path d="M155.5 2414.7L177.5 2594L355.1 2415.7Z" fill="#49443f" stroke="#c07020"></path><path d="M1211.8 2945.7L1419.4 2952.7L1408.4 2793.3Z" fill="#47423e" stroke="#c07020"></path><path d="M1544.9 2772.3L1736.5 2757.3L1585.9 2574Z" fill="#343433" stroke="#c07020"></path><path d="M1390.4 3120L1419.4 2952.7L1211.8 2945.7Z" fill="#393736" stroke="#c07020"></path><path d="M697.2 1403.7L513.6 1374.7L513.6 1533Z" fill="#3f3d39" stroke="#c07020"></path><path d="M694.2 1220.3L513.6 1374.7L697.2 1403.7Z" fill="#44403c" stroke="#c07020"></path><path d="M364.1 2943.7L516.6 2779.3L374.1 2766.3Z" fill="#323232" stroke="#c07020"></path><path d="M364.1 2943.7L499.6 2954.7L516.6 2779.3Z" fill="#3b3937" stroke="#c07020"></path><path d="M1741.5 1411.7L1547.9 1404.7L1573.9 1554Z" fill="#49443f" stroke="#c07020"></path><path d="M1920 2406.7L1747.5 2236.3L1759.5 2452.7Z" fill="#49443f" stroke="#c07020"></path><path d="M1920 2406.7L1920 2239.3L1747.5 2236.3Z" fill="#393736" stroke="#c07020"></path><path d="M1771.5 1896.7L1920 1733.3L1722.5 1708.3Z" fill="#3b3937" stroke="#c07020"></path><path d="M1920 2239.3L1920 2067L1747.5 2236.3Z" fill="#49443f" stroke="#c07020"></path><path d="M1073.3 1203.3L1070.3 1410.7L1199.8 1364.7Z" fill="#3f3d39" stroke="#c07020"></path><path d="M1073.3 1203.3L875.7 1208.3L1070.3 1410.7Z" fill="#363634" stroke="#c07020"></path><path d="M1236.8 1235.3L1199.8 1364.7L1417.4 1380.7Z" fill="#3d3b38" stroke="#c07020"></path><path d="M1399.4 1236.3L1236.8 1235.3L1417.4 1380.7Z" fill="#3b3937" stroke="#c07020"></path><path d="M1236.8 1235.3L1073.3 1203.3L1199.8 1364.7Z" fill="#343433" stroke="#c07020"></path><path d="M705.2 3134L893.7 3120L851.7 2960.7Z" fill="#423f3b" stroke="#c07020"></path><path d="M851.7 2960.7L893.7 3120L1023.3 2934.7Z" fill="#3d3b38" stroke="#c07020"></path><path d="M705.2 3134L851.7 2960.7L687.2 2960.7Z" fill="#3b3937" stroke="#c07020"></path><path d="M1549.9 2954.7L1736.5 2757.3L1544.9 2772.3Z" fill="#423f3b" stroke="#c07020"></path><path d="M1920 2577L1920 2406.7L1759.5 2452.7Z" fill="#49443f" stroke="#c07020"></path><path d="M0 1908.7L172.5 2069L157.5 1917.7Z" fill="#363634" stroke="#c07020"></path><path d="M0 1908.7L0 2100L172.5 2069Z" fill="#363634" stroke="#c07020"></path><path d="M155.5 2414.7L0 2439.7L177.5 2594Z" fill="#363634" stroke="#c07020"></path><path d="M1920 2577L1759.5 2452.7L1748.5 2586Z" fill="#323232" stroke="#c07020"></path><path d="M1920 1733.3L1742.5 1554L1722.5 1708.3Z" fill="#44403c" stroke="#c07020"></path><path d="M1722.5 1708.3L1742.5 1554L1573.9 1554Z" fill="#3d3b38" stroke="#c07020"></path><path d="M875.7 1208.3L694.2 1220.3L859.7 1411.7Z" fill="#47423e" stroke="#c07020"></path><path d="M1569.9 3108L1549.9 2954.7L1419.4 2952.7Z" fill="#49443f" stroke="#c07020"></path><path d="M1419.4 2952.7L1549.9 2954.7L1408.4 2793.3Z" fill="#423f3b" stroke="#c07020"></path><path d="M0 2100L0 2277.3L176.5 2264.3Z" fill="#393736" stroke="#c07020"></path><path d="M1920 2067L1920 1898.7L1771.5 1896.7Z" fill="#323232" stroke="#c07020"></path><path d="M893.7 3120L1020.3 3143L1023.3 2934.7Z" fill="#393736" stroke="#c07020"></path><path d="M175.5 2790.3L364.1 2943.7L374.1 2766.3Z" fill="#3b3937" stroke="#c07020"></path><path d="M511.6 3098L705.2 3134L687.2 2960.7Z" fill="#3b3937" stroke="#c07020"></path><path d="M175.5 2790.3L354.1 2625L177.5 2594Z" fill="#44403c" stroke="#c07020"></path><path d="M345.1 1560L170.5 1565L200.5 1729.3Z" fill="#3d3b38" stroke="#c07020"></path><path d="M0 1732.3L0 1908.7L157.5 1917.7Z" fill="#363634" stroke="#c07020"></path><path d="M323.1 1376.7L170.5 1565L345.1 1560Z" fill="#47423e" stroke="#c07020"></path><path d="M323.1 1376.7L513.6 1533L513.6 1374.7Z" fill="#47423e" stroke="#c07020"></path><path d="M0 1732.3L157.5 1917.7L200.5 1729.3Z" fill="#3f3d39" stroke="#c07020"></path><path d="M511.6 3098L687.2 2960.7L499.6 2954.7Z" fill="#3d3b38" stroke="#c07020"></path><path d="M869.7 3277.3L1064.3 3268.3L1020.3 3143Z" fill="#423f3b" stroke="#c07020"></path><path d="M1020.3 3143L1199.8 3145L1023.3 2934.7Z" fill="#363634" stroke="#c07020"></path><path d="M0 2277.3L0 2439.7L155.5 2414.7Z" fill="#3d3b38" stroke="#c07020"></path><path d="M1586.9 1230.3L1399.4 1236.3L1417.4 1380.7Z" fill="#3b3937" stroke="#c07020"></path><path d="M1020.3 1040L875.7 1208.3L1073.3 1203.3Z" fill="#323232" stroke="#c07020"></path><path d="M1586.9 1230.3L1417.4 1380.7L1547.9 1404.7Z" fill="#3f3d39" stroke="#c07020"></path><path d="M0 2600L175.5 2790.3L177.5 2594Z" fill="#343433" stroke="#c07020"></path><path d="M333.1 1206.3L323.1 1376.7L513.6 1374.7Z" fill="#323232" stroke="#c07020"></path><path d="M1920 2776.3L1748.5 2586L1736.5 2757.3Z" fill="#3b3937" stroke="#c07020"></path><path d="M1920 2776.3L1920 2577L1748.5 2586Z" fill="#3f3d39" stroke="#c07020"></path><path d="M1920 1898.7L1920 1733.3L1771.5 1896.7Z" fill="#3b3937" stroke="#c07020"></path><path d="M709.2 1014L549.6 1211.3L694.2 1220.3Z" fill="#3d3b38" stroke="#c07020"></path><path d="M694.2 1220.3L549.6 1211.3L513.6 1374.7Z" fill="#3d3b38" stroke="#c07020"></path><path d="M882.7 1047L694.2 1220.3L875.7 1208.3Z" fill="#363634" stroke="#c07020"></path><path d="M369.1 3119L511.6 3098L499.6 2954.7Z" fill="#363634" stroke="#c07020"></path><path d="M369.1 3119L499.6 2954.7L364.1 2943.7Z" fill="#44403c" stroke="#c07020"></path><path d="M1199.8 3145L1390.4 3120L1211.8 2945.7Z" fill="#423f3b" stroke="#c07020"></path><path d="M1549.9 2954.7L1761.5 2964.7L1736.5 2757.3Z" fill="#44403c" stroke="#c07020"></path><path d="M0 1551L0 1732.3L170.5 1565Z" fill="#47423e" stroke="#c07020"></path><path d="M170.5 1565L0 1732.3L200.5 1729.3Z" fill="#363634" stroke="#c07020"></path><path d="M0 2439.7L0 2600L177.5 2594Z" fill="#393736" stroke="#c07020"></path><path d="M1920 1538L1741.5 1411.7L1742.5 1554Z" fill="#44403c" stroke="#c07020"></path><path d="M1742.5 1554L1741.5 1411.7L1573.9 1554Z" fill="#49443f" stroke="#c07020"></path><path d="M869.7 3277.3L1020.3 3143L893.7 3120Z" fill="#3f3d39" stroke="#c07020"></path><path d="M1020.3 3143L1064.3 3268.3L1199.8 3145Z" fill="#393736" stroke="#c07020"></path><path d="M1199.8 3145L1382.4 3286.3L1390.4 3120Z" fill="#423f3b" stroke="#c07020"></path><path d="M869.7 3277.3L893.7 3120L705.2 3134Z" fill="#47423e" stroke="#c07020"></path><path d="M1741.5 1411.7L1586.9 1230.3L1547.9 1404.7Z" fill="#363634" stroke="#c07020"></path><path d="M1020.3 1040L1073.3 1203.3L1200.8 1033Z" fill="#3d3b38" stroke="#c07020"></path><path d="M169.5 1217.3L148.5 1411.7L323.1 1376.7Z" fill="#3b3937" stroke="#c07020"></path><path d="M323.1 1376.7L148.5 1411.7L170.5 1565Z" fill="#3d3b38" stroke="#c07020"></path><path d="M1073.3 1203.3L1236.8 1235.3L1200.8 1033Z" fill="#49443f" stroke="#c07020"></path><path d="M1020.3 1040L882.7 1047L875.7 1208.3Z" fill="#3d3b38" stroke="#c07020"></path><path d="M1382.4 3286.3L1569.9 3108L1390.4 3120Z" fill="#363634" stroke="#c07020"></path><path d="M1390.4 3120L1569.9 3108L1419.4 2952.7Z" fill="#3d3b38" stroke="#c07020"></path><path d="M1200.8 1033L1236.8 1235.3L1398.4 1021Z" fill="#47423e" stroke="#c07020"></path><path d="M691.2 3289.3L869.7 3277.3L705.2 3134Z" fill="#423f3b" stroke="#c07020"></path><path d="M1569.9 3108L1761.5 2964.7L1549.9 2954.7Z" fill="#44403c" stroke="#c07020"></path><path d="M1920 2927.7L1920 2776.3L1736.5 2757.3Z" fill="#44403c" stroke="#c07020"></path><path d="M1920 1733.3L1920 1538L1742.5 1554Z" fill="#3d3b38" stroke="#c07020"></path><path d="M1741.5 1411.7L1730.5 1201.3L1586.9 1230.3Z" fill="#323232" stroke="#c07020"></path><path d="M0 2784.3L149.5 2936.7L175.5 2790.3Z" fill="#343433" stroke="#c07020"></path><path d="M175.5 2790.3L149.5 2936.7L364.1 2943.7Z" fill="#3b3937" stroke="#c07020"></path><path d="M543.6 3273.3L691.2 3289.3L705.2 3134Z" fill="#393736" stroke="#c07020"></path><path d="M164.5 3144L369.1 3119L364.1 2943.7Z" fill="#393736" stroke="#c07020"></path><path d="M148.5 1411.7L0 1551L170.5 1565Z" fill="#423f3b" stroke="#c07020"></path><path d="M549.6 1211.3L333.1 1206.3L513.6 1374.7Z" fill="#343433" stroke="#c07020"></path><path d="M148.5 1411.7L0 1368.7L0 1551Z" fill="#47423e" stroke="#c07020"></path><path d="M514.6 1050L333.1 1206.3L549.6 1211.3Z" fill="#363634" stroke="#c07020"></path><path d="M1398.4 1021L1236.8 1235.3L1399.4 1236.3Z" fill="#423f3b" stroke="#c07020"></path><path d="M0 2600L0 2784.3L175.5 2790.3Z" fill="#3d3b38" stroke="#c07020"></path><path d="M543.6 3273.3L705.2 3134L511.6 3098Z" fill="#423f3b" stroke="#c07020"></path><path d="M1033.3 3490.7L1215.8 3309.3L1064.3 3268.3Z" fill="#393736" stroke="#c07020"></path><path d="M1033.3 3490.7L1064.3 3268.3L869.7 3277.3Z" fill="#393736" stroke="#c07020"></path><path d="M1064.3 3268.3L1215.8 3309.3L1199.8 3145Z" fill="#44403c" stroke="#c07020"></path><path d="M888.7 849.7L709.2 1014L882.7 1047Z" fill="#3d3b38" stroke="#c07020"></path><path d="M882.7 1047L709.2 1014L694.2 1220.3Z" fill="#363634" stroke="#c07020"></path><path d="M888.7 849.7L882.7 1047L1020.3 1040Z" fill="#3d3b38" stroke="#c07020"></path><path d="M369.1 3119L543.6 3273.3L511.6 3098Z" fill="#3d3b38" stroke="#c07020"></path><path d="M331.1 3311.3L543.6 3273.3L369.1 3119Z" fill="#363634" stroke="#c07020"></path><path d="M1215.8 3309.3L1382.4 3286.3L1199.8 3145Z" fill="#343433" stroke="#c07020"></path><path d="M1920 3127L1920 2927.7L1761.5 2964.7Z" fill="#3d3b38" stroke="#c07020"></path><path d="M709.2 1014L514.6 1050L549.6 1211.3Z" fill="#47423e" stroke="#c07020"></path><path d="M1586.9 1230.3L1398.4 1021L1399.4 1236.3Z" fill="#423f3b" stroke="#c07020"></path><path d="M1200.8 1033L1032.3 861.7L1020.3 1040Z" fill="#44403c" stroke="#c07020"></path><path d="M1595.9 1020L1398.4 1021L1586.9 1230.3Z" fill="#423f3b" stroke="#c07020"></path><path d="M1741.5 3115L1761.5 2964.7L1569.9 3108Z" fill="#423f3b" stroke="#c07020"></path><path d="M1761.5 2964.7L1920 2927.7L1736.5 2757.3Z" fill="#423f3b" stroke="#c07020"></path><path d="M1920 1369.7L1730.5 1201.3L1741.5 1411.7Z" fill="#3d3b38" stroke="#c07020"></path><path d="M1587.9 3305.3L1741.5 3115L1569.9 3108Z" fill="#3d3b38" stroke="#c07020"></path><path d="M1920 1538L1920 1369.7L1741.5 1411.7Z" fill="#49443f" stroke="#c07020"></path><path d="M188.5 1019L169.5 1217.3L333.1 1206.3Z" fill="#323232" stroke="#c07020"></path><path d="M333.1 1206.3L169.5 1217.3L323.1 1376.7Z" fill="#323232" stroke="#c07020"></path><path d="M169.5 1217.3L0 1368.7L148.5 1411.7Z" fill="#3b3937" stroke="#c07020"></path><path d="M0 2784.3L0 2959.7L149.5 2936.7Z" fill="#323232" stroke="#c07020"></path><path d="M149.5 2936.7L164.5 3144L364.1 2943.7Z" fill="#44403c" stroke="#c07020"></path><path d="M0 2959.7L164.5 3144L149.5 2936.7Z" fill="#323232" stroke="#c07020"></path><path d="M1722.5 1055L1586.9 1230.3L1730.5 1201.3Z" fill="#363634" stroke="#c07020"></path><path d="M1722.5 1055L1595.9 1020L1586.9 1230.3Z" fill="#49443f" stroke="#c07020"></path><path d="M1227.8 879.7L1032.3 861.7L1200.8 1033Z" fill="#49443f" stroke="#c07020"></path><path d="M1382.4 3286.3L1587.9 3305.3L1569.9 3108Z" fill="#343433" stroke="#c07020"></path><path d="M1741.5 3115L1920 3127L1761.5 2964.7Z" fill="#44403c" stroke="#c07020"></path><path d="M1409.4 3469.7L1587.9 3305.3L1382.4 3286.3Z" fill="#44403c" stroke="#c07020"></path><path d="M1227.8 879.7L1200.8 1033L1398.4 1021Z" fill="#3b3937" stroke="#c07020"></path><path d="M519.6 848.7L353.1 1014L514.6 1050Z" fill="#363634" stroke="#c07020"></path><path d="M514.6 1050L353.1 1014L333.1 1206.3Z" fill="#3d3b38" stroke="#c07020"></path><path d="M169.5 1217.3L0 1224.3L0 1368.7Z" fill="#47423e" stroke="#c07020"></path><path d="M519.6 848.7L514.6 1050L709.2 1014Z" fill="#44403c" stroke="#c07020"></path><path d="M700.2 3454.7L691.2 3289.3L543.6 3273.3Z" fill="#49443f" stroke="#c07020"></path><path d="M700.2 3454.7L857.7 3459.7L691.2 3289.3Z" fill="#44403c" stroke="#c07020"></path><path d="M691.2 3289.3L857.7 3459.7L869.7 3277.3Z" fill="#343433" stroke="#c07020"></path><path d="M1215.8 3309.3L1246.8 3471.7L1382.4 3286.3Z" fill="#323232" stroke="#c07020"></path><path d="M1397.4 888.7L1227.8 879.7L1398.4 1021Z" fill="#393736" stroke="#c07020"></path><path d="M1032.3 861.7L888.7 849.7L1020.3 1040Z" fill="#44403c" stroke="#c07020"></path><path d="M164.5 3144L331.1 3311.3L369.1 3119Z" fill="#47423e" stroke="#c07020"></path><path d="M888.7 849.7L704.2 868.7L709.2 1014Z" fill="#3d3b38" stroke="#c07020"></path><path d="M522.6 3481.7L700.2 3454.7L543.6 3273.3Z" fill="#343433" stroke="#c07020"></path><path d="M1920 1369.7L1920 1234.3L1730.5 1201.3Z" fill="#49443f" stroke="#c07020"></path><path d="M870.7 3633L1033.3 3490.7L857.7 3459.7Z" fill="#47423e" stroke="#c07020"></path><path d="M857.7 3459.7L1033.3 3490.7L869.7 3277.3Z" fill="#323232" stroke="#c07020"></path><path d="M1920 1049L1722.5 1055L1730.5 1201.3Z" fill="#3d3b38" stroke="#c07020"></path><path d="M1595.9 1020L1397.4 888.7L1398.4 1021Z" fill="#49443f" stroke="#c07020"></path><path d="M1033.3 3490.7L1246.8 3471.7L1215.8 3309.3Z" fill="#323232" stroke="#c07020"></path><path d="M1553.9 846.7L1397.4 888.7L1595.9 1020Z" fill="#44403c" stroke="#c07020"></path><path d="M1212.8 707.3L1028.3 717.3L1032.3 861.7Z" fill="#323232" stroke="#c07020"></path><path d="M1032.3 861.7L1028.3 717.3L888.7 849.7Z" fill="#3b3937" stroke="#c07020"></path><path d="M0 1065L0 1224.3L169.5 1217.3Z" fill="#343433" stroke="#c07020"></path><path d="M1752.5 3300.3L1920 3127L1741.5 3115Z" fill="#423f3b" stroke="#c07020"></path><path d="M1391.4 3662L1409.4 3469.7L1246.8 3471.7Z" fill="#3d3b38" stroke="#c07020"></path><path d="M1246.8 3471.7L1409.4 3469.7L1382.4 3286.3Z" fill="#423f3b" stroke="#c07020"></path><path d="M1587.9 3305.3L1752.5 3300.3L1741.5 3115Z" fill="#3f3d39" stroke="#c07020"></path><path d="M1591.9 3439.7L1752.5 3300.3L1587.9 3305.3Z" fill="#3d3b38" stroke="#c07020"></path><path d="M164.5 3144L169.5 3296.3L331.1 3311.3Z" fill="#49443f" stroke="#c07020"></path><path d="M0 2959.7L0 3140L164.5 3144Z" fill="#323232" stroke="#c07020"></path><path d="M369.1 860.7L188.5 1019L353.1 1014Z" fill="#44403c" stroke="#c07020"></path><path d="M353.1 1014L188.5 1019L333.1 1206.3Z" fill="#323232" stroke="#c07020"></path><path d="M722.2 701.3L519.6 848.7L704.2 868.7Z" fill="#44403c" stroke="#c07020"></path><path d="M704.2 868.7L519.6 848.7L709.2 1014Z" fill="#393736" stroke="#c07020"></path><path d="M0 3304.3L169.5 3296.3L164.5 3144Z" fill="#49443f" stroke="#c07020"></path><path d="M331.1 3311.3L522.6 3481.7L543.6 3273.3Z" fill="#44403c" stroke="#c07020"></path><path d="M339.1 3488.7L522.6 3481.7L331.1 3311.3Z" fill="#49443f" stroke="#c07020"></path><path d="M709.2 3636L870.7 3633L857.7 3459.7Z" fill="#343433" stroke="#c07020"></path><path d="M1409.4 3469.7L1591.9 3439.7L1587.9 3305.3Z" fill="#393736" stroke="#c07020"></path><path d="M519.6 848.7L369.1 860.7L353.1 1014Z" fill="#3d3b38" stroke="#c07020"></path><path d="M1725.5 880.7L1553.9 846.7L1595.9 1020Z" fill="#44403c" stroke="#c07020"></path><path d="M1212.8 707.3L1032.3 861.7L1227.8 879.7Z" fill="#44403c" stroke="#c07020"></path><path d="M888.7 849.7L722.2 701.3L704.2 868.7Z" fill="#3d3b38" stroke="#c07020"></path><path d="M1725.5 880.7L1595.9 1020L1722.5 1055Z" fill="#49443f" stroke="#c07020"></path><path d="M1212.8 707.3L1227.8 879.7L1374.4 686.3Z" fill="#3f3d39" stroke="#c07020"></path><path d="M519.6 848.7L501.6 678.3L369.1 860.7Z" fill="#323232" stroke="#c07020"></path><path d="M1920 1234.3L1920 1049L1730.5 1201.3Z" fill="#3d3b38" stroke="#c07020"></path><path d="M1028.3 717.3L882.7 703.3L888.7 849.7Z" fill="#363634" stroke="#c07020"></path><path d="M0 864.7L0 1065L188.5 1019Z" fill="#343433" stroke="#c07020"></path><path d="M188.5 1019L0 1065L169.5 1217.3Z" fill="#423f3b" stroke="#c07020"></path><path d="M192.5 3482.7L339.1 3488.7L331.1 3311.3Z" fill="#343433" stroke="#c07020"></path><path d="M709.2 3636L857.7 3459.7L700.2 3454.7Z" fill="#323232" stroke="#c07020"></path><path d="M192.5 3482.7L331.1 3311.3L169.5 3296.3Z" fill="#44403c" stroke="#c07020"></path><path d="M1374.4 686.3L1227.8 879.7L1397.4 888.7Z" fill="#3d3b38" stroke="#c07020"></path><path d="M1028.3 717.3L1027.3 519L882.7 703.3Z" fill="#3d3b38" stroke="#c07020"></path><path d="M709.2 3636L700.2 3454.7L522.6 3481.7Z" fill="#44403c" stroke="#c07020"></path><path d="M1033.3 3490.7L1212.8 3628L1246.8 3471.7Z" fill="#47423e" stroke="#c07020"></path><path d="M1409.4 3469.7L1570.9 3630L1591.9 3439.7Z" fill="#363634" stroke="#c07020"></path><path d="M882.7 703.3L722.2 701.3L888.7 849.7Z" fill="#323232" stroke="#c07020"></path><path d="M501.6 678.3L722.2 701.3L709.2 544Z" fill="#44403c" stroke="#c07020"></path><path d="M1920 1049L1725.5 880.7L1722.5 1055Z" fill="#343433" stroke="#c07020"></path><path d="M1553.9 846.7L1374.4 686.3L1397.4 888.7Z" fill="#423f3b" stroke="#c07020"></path><path d="M1048.3 3661L1212.8 3628L1033.3 3490.7Z" fill="#44403c" stroke="#c07020"></path><path d="M1735.5 3470.7L1920 3312.3L1752.5 3300.3Z" fill="#3d3b38" stroke="#c07020"></path><path d="M1752.5 3300.3L1920 3312.3L1920 3127Z" fill="#393736" stroke="#c07020"></path><path d="M1735.5 3470.7L1752.5 3300.3L1591.9 3439.7Z" fill="#47423e" stroke="#c07020"></path><path d="M529.6 3666L709.2 3636L522.6 3481.7Z" fill="#323232" stroke="#c07020"></path><path d="M870.7 3633L1048.3 3661L1033.3 3490.7Z" fill="#363634" stroke="#c07020"></path><path d="M864.7 3792.3L1048.3 3661L870.7 3633Z" fill="#44403c" stroke="#c07020"></path><path d="M0 3140L0 3304.3L164.5 3144Z" fill="#47423e" stroke="#c07020"></path><path d="M1570.9 3630L1735.5 3470.7L1591.9 3439.7Z" fill="#323232" stroke="#c07020"></path><path d="M1560.9 710.3L1374.4 686.3L1553.9 846.7Z" fill="#49443f" stroke="#c07020"></path><path d="M1212.8 707.3L1209.8 544L1028.3 717.3Z" fill="#49443f" stroke="#c07020"></path><path d="M0 3465.7L192.5 3482.7L169.5 3296.3Z" fill="#3b3937" stroke="#c07020"></path><path d="M359.1 3662L529.6 3666L522.6 3481.7Z" fill="#323232" stroke="#c07020"></path><path d="M369.1 860.7L167.5 852.7L188.5 1019Z" fill="#3b3937" stroke="#c07020"></path><path d="M190.5 716.3L167.5 852.7L369.1 860.7Z" fill="#44403c" stroke="#c07020"></path><path d="M709.2 544L722.2 701.3L882.7 703.3Z" fill="#47423e" stroke="#c07020"></path><path d="M722.2 701.3L501.6 678.3L519.6 848.7Z" fill="#393736" stroke="#c07020"></path><path d="M1202.8 3786.3L1391.4 3662L1212.8 3628Z" fill="#3b3937" stroke="#c07020"></path><path d="M1212.8 3628L1391.4 3662L1246.8 3471.7Z" fill="#393736" stroke="#c07020"></path><path d="M1725.5 880.7L1560.9 710.3L1553.9 846.7Z" fill="#44403c" stroke="#c07020"></path><path d="M1761.5 715.3L1560.9 710.3L1725.5 880.7Z" fill="#393736" stroke="#c07020"></path><path d="M359.1 3662L522.6 3481.7L339.1 3488.7Z" fill="#3f3d39" stroke="#c07020"></path><path d="M709.2 3636L864.7 3792.3L870.7 3633Z" fill="#3d3b38" stroke="#c07020"></path><path d="M1048.3 3661L1202.8 3786.3L1212.8 3628Z" fill="#363634" stroke="#c07020"></path><path d="M1391.4 3662L1570.9 3630L1409.4 3469.7Z" fill="#49443f" stroke="#c07020"></path><path d="M1735.5 3470.7L1920 3484.7L1920 3312.3Z" fill="#3b3937" stroke="#c07020"></path><path d="M501.6 678.3L345.1 694.3L369.1 860.7Z" fill="#44403c" stroke="#c07020"></path><path d="M1920 1049L1920 873.7L1725.5 880.7Z" fill="#47423e" stroke="#c07020"></path><path d="M0 704.3L0 864.7L167.5 852.7Z" fill="#423f3b" stroke="#c07020"></path><path d="M167.5 852.7L0 864.7L188.5 1019Z" fill="#44403c" stroke="#c07020"></path><path d="M185.5 3625L359.1 3662L339.1 3488.7Z" fill="#363634" stroke="#c07020"></path><path d="M185.5 3625L339.1 3488.7L192.5 3482.7Z" fill="#393736" stroke="#c07020"></path><path d="M1738.5 3631L1920 3484.7L1735.5 3470.7Z" fill="#3f3d39" stroke="#c07020"></path><path d="M0 3304.3L0 3465.7L169.5 3296.3Z" fill="#393736" stroke="#c07020"></path><path d="M1376.4 526L1374.4 686.3L1559.9 515Z" fill="#47423e" stroke="#c07020"></path><path d="M1376.4 526L1209.8 544L1374.4 686.3Z" fill="#423f3b" stroke="#c07020"></path><path d="M1374.4 686.3L1209.8 544L1212.8 707.3Z" fill="#423f3b" stroke="#c07020"></path><path d="M501.6 678.3L334.1 520L345.1 694.3Z" fill="#363634" stroke="#c07020"></path><path d="M684.2 3823.3L709.2 3636L529.6 3666Z" fill="#3f3d39" stroke="#c07020"></path><path d="M684.2 3823.3L864.7 3792.3L709.2 3636Z" fill="#44403c" stroke="#c07020"></path><path d="M1391.4 3662L1573.9 3836.3L1570.9 3630Z" fill="#3d3b38" stroke="#c07020"></path><path d="M879.7 519L709.2 544L882.7 703.3Z" fill="#423f3b" stroke="#c07020"></path><path d="M1045.3 3825.3L1202.8 3786.3L1048.3 3661Z" fill="#323232" stroke="#c07020"></path><path d="M1570.9 3630L1738.5 3631L1735.5 3470.7Z" fill="#423f3b" stroke="#c07020"></path><path d="M1209.8 544L1027.3 519L1028.3 717.3Z" fill="#49443f" stroke="#c07020"></path><path d="M345.1 694.3L190.5 716.3L369.1 860.7Z" fill="#3b3937" stroke="#c07020"></path><path d="M173.5 528L190.5 716.3L345.1 694.3Z" fill="#3d3b38" stroke="#c07020"></path><path d="M1027.3 519L879.7 519L882.7 703.3Z" fill="#343433" stroke="#c07020"></path><path d="M1920 873.7L1761.5 715.3L1725.5 880.7Z" fill="#3f3d39" stroke="#c07020"></path><path d="M1719.5 3794.3L1738.5 3631L1570.9 3630Z" fill="#343433" stroke="#c07020"></path><path d="M0 3465.7L185.5 3625L192.5 3482.7Z" fill="#44403c" stroke="#c07020"></path><path d="M508.6 3826.3L684.2 3823.3L529.6 3666Z" fill="#3b3937" stroke="#c07020"></path><path d="M864.7 3792.3L1045.3 3825.3L1048.3 3661Z" fill="#49443f" stroke="#c07020"></path><path d="M1247.8 3959.7L1379.4 3786.3L1202.8 3786.3Z" fill="#44403c" stroke="#c07020"></path><path d="M1202.8 3786.3L1379.4 3786.3L1391.4 3662Z" fill="#47423e" stroke="#c07020"></path><path d="M1559.9 515L1374.4 686.3L1560.9 710.3Z" fill="#49443f" stroke="#c07020"></path><path d="M1209.8 544L1036.3 359.7L1027.3 519Z" fill="#49443f" stroke="#c07020"></path><path d="M508.6 3826.3L529.6 3666L359.1 3662Z" fill="#47423e" stroke="#c07020"></path><path d="M861.7 3980.7L1051.3 3966.7L1045.3 3825.3Z" fill="#393736" stroke="#c07020"></path><path d="M537.6 366.7L509.6 508L709.2 544Z" fill="#393736" stroke="#c07020"></path><path d="M709.2 544L509.6 508L501.6 678.3Z" fill="#343433" stroke="#c07020"></path><path d="M709.2 341.7L709.2 544L879.7 519Z" fill="#47423e" stroke="#c07020"></path><path d="M1036.3 359.7L879.7 519L1027.3 519Z" fill="#363634" stroke="#c07020"></path><path d="M341.1 3805.3L508.6 3826.3L359.1 3662Z" fill="#47423e" stroke="#c07020"></path><path d="M861.7 3980.7L1045.3 3825.3L864.7 3792.3Z" fill="#3f3d39" stroke="#c07020"></path><path d="M1767.5 522L1559.9 515L1560.9 710.3Z" fill="#393736" stroke="#c07020"></path><path d="M1225.8 359.7L1036.3 359.7L1209.8 544Z" fill="#343433" stroke="#c07020"></path><path d="M173.5 528L0 704.3L190.5 716.3Z" fill="#393736" stroke="#c07020"></path><path d="M190.5 716.3L0 704.3L167.5 852.7Z" fill="#363634" stroke="#c07020"></path><path d="M1920 873.7L1920 678.3L1761.5 715.3Z" fill="#323232" stroke="#c07020"></path><path d="M1761.5 715.3L1767.5 522L1560.9 710.3Z" fill="#3d3b38" stroke="#c07020"></path><path d="M509.6 508L334.1 520L501.6 678.3Z" fill="#49443f" stroke="#c07020"></path><path d="M1719.5 3794.3L1920 3646L1738.5 3631Z" fill="#47423e" stroke="#c07020"></path><path d="M1738.5 3631L1920 3646L1920 3484.7Z" fill="#323232" stroke="#c07020"></path><path d="M168.5 3787.3L341.1 3805.3L359.1 3662Z" fill="#363634" stroke="#c07020"></path><path d="M168.5 3787.3L359.1 3662L185.5 3625Z" fill="#47423e" stroke="#c07020"></path><path d="M1394.4 3976.7L1573.9 3836.3L1379.4 3786.3Z" fill="#47423e" stroke="#c07020"></path><path d="M1379.4 3786.3L1573.9 3836.3L1391.4 3662Z" fill="#323232" stroke="#c07020"></path><path d="M1051.3 3966.7L1202.8 3786.3L1045.3 3825.3Z" fill="#49443f" stroke="#c07020"></path><path d="M0 3465.7L0 3660L185.5 3625Z" fill="#343433" stroke="#c07020"></path><path d="M1573.9 3836.3L1719.5 3794.3L1570.9 3630Z" fill="#49443f" stroke="#c07020"></path><path d="M1225.8 359.7L1209.8 544L1376.4 526Z" fill="#423f3b" stroke="#c07020"></path><path d="M509.6 508L372.1 356.7L334.1 520Z" fill="#3b3937" stroke="#c07020"></path><path d="M861.7 3980.7L684.2 3823.3L719.2 4011.7Z" fill="#343433" stroke="#c07020"></path><path d="M861.7 3980.7L864.7 3792.3L684.2 3823.3Z" fill="#343433" stroke="#c07020"></path><path d="M0 3660L168.5 3787.3L185.5 3625Z" fill="#44403c" stroke="#c07020"></path><path d="M719.2 4011.7L684.2 3823.3L541.6 3982.7Z" fill="#343433" stroke="#c07020"></path><path d="M150.5 340.7L173.5 528L334.1 520Z" fill="#323232" stroke="#c07020"></path><path d="M334.1 520L173.5 528L345.1 694.3Z" fill="#3b3937" stroke="#c07020"></path><path d="M1384.4 339.7L1376.4 526L1562.9 366.7Z" fill="#423f3b" stroke="#c07020"></path><path d="M1384.4 339.7L1225.8 359.7L1376.4 526Z" fill="#363634" stroke="#c07020"></path><path d="M1051.3 3966.7L1247.8 3959.7L1202.8 3786.3Z" fill="#343433" stroke="#c07020"></path><path d="M1573.9 3836.3L1586.9 3969.7L1719.5 3794.3Z" fill="#343433" stroke="#c07020"></path><path d="M1920 678.3L1767.5 522L1761.5 715.3Z" fill="#3d3b38" stroke="#c07020"></path><path d="M684.2 3823.3L508.6 3826.3L541.6 3982.7Z" fill="#393736" stroke="#c07020"></path><path d="M1407.4 4160L1394.4 3976.7L1247.8 3959.7Z" fill="#393736" stroke="#c07020"></path><path d="M861.7 320.7L709.2 341.7L879.7 519Z" fill="#423f3b" stroke="#c07020"></path><path d="M861.7 320.7L879.7 519L1036.3 359.7Z" fill="#423f3b" stroke="#c07020"></path><path d="M1040.3 189.3L861.7 320.7L1036.3 359.7Z" fill="#44403c" stroke="#c07020"></path><path d="M709.2 341.7L537.6 366.7L709.2 544Z" fill="#3b3937" stroke="#c07020"></path><path d="M1209.8 4160L1247.8 3959.7L1051.3 3966.7Z" fill="#49443f" stroke="#c07020"></path><path d="M1247.8 3959.7L1394.4 3976.7L1379.4 3786.3Z" fill="#323232" stroke="#c07020"></path><path d="M1562.9 366.7L1376.4 526L1559.9 515Z" fill="#323232" stroke="#c07020"></path><path d="M1218.8 194.3L1040.3 189.3L1036.3 359.7Z" fill="#363634" stroke="#c07020"></path><path d="M541.6 3982.7L508.6 3826.3L324.1 4005.7Z" fill="#3b3937" stroke="#c07020"></path><path d="M861.7 3980.7L1048.3 4160L1051.3 3966.7Z" fill="#44403c" stroke="#c07020"></path><path d="M324.1 4005.7L508.6 3826.3L341.1 3805.3Z" fill="#393736" stroke="#c07020"></path><path d="M1767.5 522L1562.9 366.7L1559.9 515Z" fill="#3f3d39" stroke="#c07020"></path><path d="M1920 678.3L1920 525L1767.5 522Z" fill="#3b3937" stroke="#c07020"></path><path d="M1767.5 522L1732.5 332.7L1562.9 366.7Z" fill="#3d3b38" stroke="#c07020"></path><path d="M1719.5 3794.3L1920 3803.3L1920 3646Z" fill="#3d3b38" stroke="#c07020"></path><path d="M1758.5 3965.7L1920 3803.3L1719.5 3794.3Z" fill="#47423e" stroke="#c07020"></path><path d="M519.6 198.3L537.6 366.7L709.2 341.7Z" fill="#3d3b38" stroke="#c07020"></path><path d="M519.6 198.3L372.1 356.7L537.6 366.7Z" fill="#393736" stroke="#c07020"></path><path d="M537.6 366.7L372.1 356.7L509.6 508Z" fill="#47423e" stroke="#c07020"></path><path d="M1758.5 3965.7L1586.9 3969.7L1749.5 4160Z" fill="#423f3b" stroke="#c07020"></path><path d="M1394.4 3976.7L1586.9 3969.7L1573.9 3836.3Z" fill="#3f3d39" stroke="#c07020"></path><path d="M173.5 528L0 505L0 704.3Z" fill="#393736" stroke="#c07020"></path><path d="M150.5 340.7L0 505L173.5 528Z" fill="#323232" stroke="#c07020"></path><path d="M0 3660L0 3825.3L168.5 3787.3Z" fill="#393736" stroke="#c07020"></path><path d="M187.5 3977.7L324.1 4005.7L341.1 3805.3Z" fill="#323232" stroke="#c07020"></path><path d="M722.2 4160L863.7 4160L719.2 4011.7Z" fill="#49443f" stroke="#c07020"></path><path d="M187.5 3977.7L341.1 3805.3L168.5 3787.3Z" fill="#44403c" stroke="#c07020"></path><path d="M1557.9 4160L1586.9 3969.7L1394.4 3976.7Z" fill="#3b3937" stroke="#c07020"></path><path d="M1586.9 3969.7L1758.5 3965.7L1719.5 3794.3Z" fill="#3f3d39" stroke="#c07020"></path><path d="M1218.8 194.3L1036.3 359.7L1225.8 359.7Z" fill="#323232" stroke="#c07020"></path><path d="M861.7 320.7L688.2 148.3L709.2 341.7Z" fill="#44403c" stroke="#c07020"></path><path d="M1218.8 194.3L1225.8 359.7L1384.4 339.7Z" fill="#3b3937" stroke="#c07020"></path><path d="M1920 331.7L1732.5 332.7L1767.5 522Z" fill="#343433" stroke="#c07020"></path><path d="M1377.4 186.3L1218.8 194.3L1384.4 339.7Z" fill="#44403c" stroke="#c07020"></path><path d="M0 3825.3L187.5 3977.7L168.5 3787.3Z" fill="#423f3b" stroke="#c07020"></path><path d="M1377.4 186.3L1384.4 339.7L1580.9 188.3Z" fill="#323232" stroke="#c07020"></path><path d="M1026.3 0L891.7 177.3L1040.3 189.3Z" fill="#393736" stroke="#c07020"></path><path d="M1040.3 189.3L891.7 177.3L861.7 320.7Z" fill="#363634" stroke="#c07020"></path><path d="M196.5 168.3L150.5 340.7L372.1 356.7Z" fill="#323232" stroke="#c07020"></path><path d="M372.1 356.7L150.5 340.7L334.1 520Z" fill="#47423e" stroke="#c07020"></path><path d="M719.2 4011.7L537.6 4160L722.2 4160Z" fill="#363634" stroke="#c07020"></path><path d="M863.7 4160L861.7 3980.7L719.2 4011.7Z" fill="#323232" stroke="#c07020"></path><path d="M863.7 4160L1048.3 4160L861.7 3980.7Z" fill="#323232" stroke="#c07020"></path><path d="M719.2 4011.7L541.6 3982.7L537.6 4160Z" fill="#44403c" stroke="#c07020"></path><path d="M1048.3 4160L1209.8 4160L1051.3 3966.7Z" fill="#44403c" stroke="#c07020"></path><path d="M688.2 148.3L519.6 198.3L709.2 341.7Z" fill="#423f3b" stroke="#c07020"></path><path d="M1580.9 188.3L1384.4 339.7L1562.9 366.7Z" fill="#423f3b" stroke="#c07020"></path><path d="M1209.8 0L1026.3 0L1040.3 189.3Z" fill="#44403c" stroke="#c07020"></path><path d="M537.6 4160L541.6 3982.7L367.1 4160Z" fill="#343433" stroke="#c07020"></path><path d="M891.7 177.3L688.2 148.3L861.7 320.7Z" fill="#47423e" stroke="#c07020"></path><path d="M847.7 0L688.2 148.3L891.7 177.3Z" fill="#3f3d39" stroke="#c07020"></path><path d="M1209.8 4160L1407.4 4160L1247.8 3959.7Z" fill="#423f3b" stroke="#c07020"></path><path d="M367.1 4160L541.6 3982.7L324.1 4005.7Z" fill="#323232" stroke="#c07020"></path><path d="M1920 525L1920 331.7L1767.5 522Z" fill="#3b3937" stroke="#c07020"></path><path d="M1732.5 332.7L1580.9 188.3L1562.9 366.7Z" fill="#323232" stroke="#c07020"></path><path d="M1735.5 197.3L1580.9 188.3L1732.5 332.7Z" fill="#3f3d39" stroke="#c07020"></path><path d="M1209.8 0L1040.3 189.3L1218.8 194.3Z" fill="#3b3937" stroke="#c07020"></path><path d="M0 3825.3L0 3981.7L187.5 3977.7Z" fill="#393736" stroke="#c07020"></path><path d="M151.5 4160L367.1 4160L324.1 4005.7Z" fill="#343433" stroke="#c07020"></path><path d="M150.5 340.7L0 336.7L0 505Z" fill="#3b3937" stroke="#c07020"></path><path d="M0 197.3L0 336.7L150.5 340.7Z" fill="#343433" stroke="#c07020"></path><path d="M362.1 160.3L372.1 356.7L519.6 198.3Z" fill="#3b3937" stroke="#c07020"></path><path d="M1758.5 3965.7L1920 4006.7L1920 3803.3Z" fill="#343433" stroke="#c07020"></path><path d="M1749.5 4160L1920 4006.7L1758.5 3965.7Z" fill="#363634" stroke="#c07020"></path><path d="M1407.4 4160L1557.9 4160L1394.4 3976.7Z" fill="#423f3b" stroke="#c07020"></path><path d="M151.5 4160L324.1 4005.7L187.5 3977.7Z" fill="#343433" stroke="#c07020"></path><path d="M504.6 0L362.1 160.3L519.6 198.3Z" fill="#323232" stroke="#c07020"></path><path d="M1920 331.7L1735.5 197.3L1732.5 332.7Z" fill="#363634" stroke="#c07020"></path><path d="M362.1 160.3L196.5 168.3L372.1 356.7Z" fill="#3d3b38" stroke="#c07020"></path><path d="M1557.9 4160L1749.5 4160L1586.9 3969.7Z" fill="#423f3b" stroke="#c07020"></path><path d="M1209.8 0L1377.4 186.3L1400.4 0Z" fill="#323232" stroke="#c07020"></path><path d="M1209.8 0L1218.8 194.3L1377.4 186.3Z" fill="#323232" stroke="#c07020"></path><path d="M688.2 148.3L504.6 0L519.6 198.3Z" fill="#423f3b" stroke="#c07020"></path><path d="M362.1 160.3L332.1 0L196.5 168.3Z" fill="#363634" stroke="#c07020"></path><path d="M0 3981.7L151.5 4160L187.5 3977.7Z" fill="#423f3b" stroke="#c07020"></path><path d="M1026.3 0L847.7 0L891.7 177.3Z" fill="#3d3b38" stroke="#c07020"></path><path d="M1400.4 0L1377.4 186.3L1550.9 0Z" fill="#393736" stroke="#c07020"></path><path d="M847.7 0L717.2 0L688.2 148.3Z" fill="#44403c" stroke="#c07020"></path><path d="M167.5 0L0 197.3L196.5 168.3Z" fill="#49443f" stroke="#c07020"></path><path d="M196.5 168.3L0 197.3L150.5 340.7Z" fill="#3f3d39" stroke="#c07020"></path><path d="M1920 331.7L1920 172.3L1735.5 197.3Z" fill="#323232" stroke="#c07020"></path><path d="M1550.9 0L1377.4 186.3L1580.9 188.3Z" fill="#44403c" stroke="#c07020"></path><path d="M1550.9 0L1580.9 188.3L1727.5 0Z" fill="#393736" stroke="#c07020"></path><path d="M717.2 0L504.6 0L688.2 148.3Z" fill="#3b3937" stroke="#c07020"></path><path d="M1749.5 4160L1920 4160L1920 4006.7Z" fill="#47423e" stroke="#c07020"></path><path d="M0 3981.7L0 4160L151.5 4160Z" fill="#3f3d39" stroke="#c07020"></path><path d="M1727.5 0L1580.9 188.3L1735.5 197.3Z" fill="#44403c" stroke="#c07020"></path><path d="M504.6 0L332.1 0L362.1 160.3Z" fill="#323232" stroke="#c07020"></path><path d="M1920 172.3L1727.5 0L1735.5 197.3Z" fill="#3b3937" stroke="#c07020"></path><path d="M332.1 0L167.5 0L196.5 168.3Z" fill="#3f3d39" stroke="#c07020"></path><path d="M1920 172.3L1920 0L1727.5 0Z" fill="#49443f" stroke="#c07020"></path><path d="M167.5 0L0 0L0 197.3Z" fill="#3f3d39" stroke="#c07020"></path></g></svg>